<svg width="16" height="16" viewBox="0 0 16 16" fill="none" xmlns="http://www.w3.org/2000/svg">
<path d="M14.3368 8.16733L12.9505 6.12541L14.3368 4.0835C14.4016 3.9861 14.4173 3.86453 14.3796 3.75393C14.3415 3.64334 14.2543 3.55654 14.1434 3.51994L9.61859 2.02001C9.45672 1.96543 9.28168 2.02695 9.18793 2.16757L7.99998 3.94948L6.81203 2.16757C6.71756 2.02623 6.54104 1.96506 6.38137 2.02001L1.85655 3.51994C1.74561 3.55657 1.65843 3.64336 1.62036 3.75393C1.58264 3.86453 1.59839 3.9861 1.66321 4.08352L3.0495 6.12544L1.66323 8.16733C1.59841 8.26473 1.58266 8.38632 1.62039 8.49692C1.65846 8.60751 1.74563 8.69431 1.85658 8.73091L6.38139 10.2308C6.54064 10.2844 6.71778 10.2246 6.81205 10.0833L8 8.30137L9.18795 10.0833C9.2823 10.2248 9.45954 10.2844 9.61861 10.2308L14.1434 8.73091C14.2544 8.69428 14.3415 8.60749 14.3796 8.49692C14.4173 8.38632 14.4016 8.26475 14.3368 8.16733ZM8 7.23024L4.68556 6.12544L8 5.02063L11.3144 6.12544L8 7.23024Z" fill="white"/>
<path d="M9.85583 10.9423C9.38385 11.1006 8.85022 10.9289 8.56388 10.4992L7.99998 9.65332L7.436 10.4992C7.15024 10.9281 6.61724 11.1014 6.14223 10.9415L3.12515 9.93593V12.1251C3.12515 12.2866 3.22842 12.4298 3.38149 12.4807L7.87911 13.9799C7.89266 13.9846 7.90621 13.9883 7.91976 13.9912C7.91976 13.9912 7.92013 13.9912 7.92013 13.9916H7.92051C7.94688 13.9971 7.97361 14 7.99998 14C8.02818 14 8.056 13.9967 8.08383 13.9905C8.09628 13.9876 8.10835 13.9843 8.12045 13.9803L12.6184 12.4807C12.7715 12.4298 12.8748 12.2866 12.8748 12.1251V9.93598L9.85583 10.9423Z" fill="white"/>
</svg>
